<?xml version="1.0" encoding="utf-8"?>
<!-- Generator: Adobe Illustrator 21.1.0, SVG Export Plug-In . SVG Version: 6.00 Build 0)  -->
<svg version="1.1" id="Layer_1" xmlns="http://www.w3.org/2000/svg" xmlns:xlink="http://www.w3.org/1999/xlink" x="0px" y="0px"
	 viewBox="0 0 12 12" style="enable-background:new 0 0 12 12;" xml:space="preserve">
<style type="text/css">
	.st0{fill:#AEB8C1;}
</style>
<path class="st0" d="M10.6,1.3c-0.1-0.4-0.5-0.7-0.9-0.7H2.3c-0.4,0-0.8,0.3-0.9,0.7L0,5.3v5.3c0,0.4,0.3,0.7,0.7,0.7h0.7
	C1.7,11.3,2,11,2,10.7V10h8v0.7c0,0.4,0.3,0.7,0.7,0.7h0.7c0.4,0,0.7-0.3,0.7-0.7V5.3L10.6,1.3z M2.3,8c-0.6,0-1-0.4-1-1s0.4-1,1-1
	s1,0.4,1,1S2.9,8,2.3,8z M9.7,8c-0.6,0-1-0.4-1-1s0.4-1,1-1s1,0.4,1,1S10.2,8,9.7,8z M1.3,4.7l1-3h7.3l1,3H1.3z"/>
</svg>
