<?xml version="1.0" encoding="utf-8"?>
<!-- Generator: Adobe Illustrator 21.1.0, SVG Export Plug-In . SVG Version: 6.00 Build 0)  -->
<svg version="1.1" id="Layer_1" xmlns="http://www.w3.org/2000/svg" xmlns:xlink="http://www.w3.org/1999/xlink" x="0px" y="0px"
	 viewBox="0 0 12 12" style="enable-background:new 0 0 12 12;" xml:space="preserve">
<style type="text/css">
	.st0{fill:#AEB8C1;}
</style>
<path class="st0" d="M10.6,6.6c0-0.2,0-0.4,0-0.6s0-0.4,0-0.6l1.3-1C12,4.3,12,4.2,12,4L10.7,2c-0.1-0.1-0.2-0.2-0.4-0.1L8.8,2.4
	C8.5,2.2,8.1,2,7.8,1.8L7.5,0.3C7.5,0.1,7.4,0,7.2,0H4.8C4.6,0,4.5,0.1,4.5,0.3L4.2,1.8C3.9,2,3.5,2.2,3.2,2.4L1.7,1.8
	C1.5,1.8,1.4,1.8,1.3,2L0,4C0,4.2,0,4.3,0.1,4.4l1.3,1c0,0.2,0,0.4,0,0.6s0,0.4,0,0.6l-1.3,1C0,7.7,0,7.8,0,8L1.3,10
	c0.1,0.1,0.2,0.2,0.4,0.1l1.5-0.6c0.3,0.2,0.7,0.4,1,0.6l0.2,1.6c0,0.1,0.1,0.3,0.3,0.3h2.5c0.2,0,0.3-0.1,0.3-0.3l0.2-1.6
	c0.4-0.1,0.7-0.4,1-0.6l1.5,0.6c0.1,0.1,0.3,0,0.4-0.1L12,8c0.1-0.1,0-0.3-0.1-0.4L10.6,6.6z M6,8.1C4.8,8.1,3.8,7.2,3.8,6
	s1-2.1,2.2-2.1S8.2,4.8,8.2,6S7.2,8.1,6,8.1z"/>
</svg>
