<?xml version="1.0" encoding="utf-8"?>
<!-- Generator: Adobe Illustrator 21.1.0, SVG Export Plug-In . SVG Version: 6.00 Build 0)  -->
<svg version="1.1" id="Layer_1" xmlns="http://www.w3.org/2000/svg" xmlns:xlink="http://www.w3.org/1999/xlink" x="0px" y="0px"
	 viewBox="0 0 30 30" style="enable-background:new 0 0 30 30;" xml:space="preserve">
<style type="text/css">
	.st0{fill:#AEB8C1;}
</style>
<g>
	<path class="st0" d="M6.1,4.2l5.8,7.3c0,0-0.7,1-0.8,1.2c-0.1,0.2-0.2,1.1,0.6,0.7l0.7-0.4c0,0,4.8,0.4,5.6,0.2
		c0.8-0.1,2.2,0,4-1.1s2.9-2,4.3-1c1.6,1,2.3,1.6,2.3,1.6s0.4,0.2-0.4,0.8c-0.7,0.6-4.9,4.6-6.8,5.8c0,0-1,0.8-2.9,0.4l-3.8,1.9
		l0.5,1l-5.9,3.1L5.6,20c0,0-0.4-0.5-0.1-1.2c0.2-0.7,0.4-1.3,0.4-1.3l-0.6-0.7l-1.7,0.5l-3.6-7L6.1,4.2z"/>
	<polygon class="st0" points="30,17.9 17.3,24.1 17,23.6 28.7,15.5 	"/>
	<polygon class="st0" points="27.6,25.8 25.4,25.8 23.3,22.2 25.1,21.2 	"/>
</g>
</svg>
