<?xml version="1.0" encoding="utf-8"?>
<!-- Generator: Adobe Illustrator 21.1.0, SVG Export Plug-In . SVG Version: 6.00 Build 0)  -->
<svg version="1.1" id="Layer_1" xmlns="http://www.w3.org/2000/svg" xmlns:xlink="http://www.w3.org/1999/xlink" x="0px" y="0px"
	 viewBox="0 0 25 25" style="enable-background:new 0 0 25 25;" xml:space="preserve">
<g>
	<path d="M10.6,13.7c0,0.7-0.6,1.3-1.3,1.3c-0.7,0-1.3-0.6-1.3-1.3c0-0.7,0.6-1.3,1.3-1.3C10,12.4,10.6,13,10.6,13.7z M15.7,12.4
		c-0.7,0-1.3,0.6-1.3,1.3c0,0.7,0.6,1.3,1.3,1.3s1.3-0.6,1.3-1.3C16.9,13,16.4,12.4,15.7,12.4z M24.7,13v2.4c0,1.2-1,2.2-2.2,2.2H21
		c-1.6,4.3-5.5,6.9-8.5,6.9S5.6,21.9,4,17.6H2.4c-1.2,0-2.2-1-2.2-2.2V13c0-0.8,0.5-1.5,1.1-1.9c0-3.4,1-6,2.9-7.9
		C6.3,1.4,9,0.5,12.5,0.5s6.2,0.9,8.1,2.7c1.9,1.8,2.9,4.5,2.9,7.9C24.3,11.5,24.7,12.2,24.7,13z M20.1,13.7c0-0.6,0-1.1-0.1-1.6
		c-1-0.9-2.7-1.5-4.9-1.8c0.3,0.3,0.5,0.8,0.7,1.3c-1.4-1.1-4-0.8-6-3.2C9.7,8.3,9.6,8.2,9.5,8.1c0,0,0,0,0,0l0,0
		C9.2,7.6,9.1,7.3,9,7.6c-0.1,2.7-2,4.9-4.2,5.2c0,0.3,0,0.6,0,0.9c0,1.2,0.2,2.2,0.5,3.2c1.2,1.5,3.2,1.9,5,2
		c0.3-0.5,1.1-0.9,1.9-0.9c1.2,0,2.1,0.7,2.1,1.5c0,0.8-0.9,1.5-2.1,1.5c-0.9,0-1.7-0.4-2-1c-1.2-0.1-2.6-0.3-3.8-0.9
		c1.7,2.5,4.3,3.8,6,3.8C15.1,23,20.1,19.7,20.1,13.7z M22.3,10.8c-0.1-5.9-3.5-9-9.8-9s-9.6,3.1-9.8,9h0.8c0.3-2,0.9-3.6,1.9-4.9
		c1.6-2,3.9-3,7-3s5.5,1,7,3c1,1.3,1.6,2.9,1.9,4.9L22.3,10.8L22.3,10.8z"/>
</g>
</svg>
