<?xml version="1.0" encoding="utf-8"?>
<!-- Generator: Adobe Illustrator 21.1.0, SVG Export Plug-In . SVG Version: 6.00 Build 0)  -->
<svg version="1.1" id="Layer_1" xmlns="http://www.w3.org/2000/svg" xmlns:xlink="http://www.w3.org/1999/xlink" x="0px" y="0px"
	 viewBox="0 0 12 12" style="enable-background:new 0 0 12 12;" xml:space="preserve">
<style type="text/css">
	.st0{fill:#AEB8C1;}
</style>
<g>
	<g>
		<path class="st0" d="M11.5,4.2H0.6C0,4.2,0,4.4,0,4.8l0.5,5.5c0,0.4,0.1,0.6,0.6,0.6h9.7c0.6,0,0.6-0.3,0.6-0.6L12,4.8
			C12,4.4,12,4.2,11.5,4.2z M11,2.9c-0.1-0.3-0.4-0.5-0.7-0.5H6.2C5.9,2.4,5.5,2.2,5.2,2L4.9,1.6C4.7,1.4,4.2,1.2,3.8,1.2h-2
			c-0.4,0-0.6,0.3-0.7,0.6L1,3.3h10.2L11,2.9z"/>
	</g>
</g>
</svg>
