<?xml version="1.0" encoding="utf-8"?>
<!-- Generator: Adobe Illustrator 21.1.0, SVG Export Plug-In . SVG Version: 6.00 Build 0)  -->
<svg version="1.1" id="Layer_1" xmlns="http://www.w3.org/2000/svg" xmlns:xlink="http://www.w3.org/1999/xlink" x="0px" y="0px"
	 viewBox="0 0 30 30" style="enable-background:new 0 0 30 30;" xml:space="preserve">
<style type="text/css">
	.st0{fill:#AEB8C1;}
</style>
<g>
	<path class="st0" d="M15,22.1c5.2,0,9.4-4.2,9.4-9.4S20.2,3.4,15,3.4s-9.4,4.2-9.4,9.4S9.8,22.1,15,22.1z M8.2,11.4
		c0.1-0.6,0.4-1.2,0.6-1.8C8.9,9.4,9.2,9,10.1,9.5l0,0c0.8,0.6,1.8,0.7,2.5,0.2c0.8-0.5,1-1.7,0.7-2.9l0,0c0,0-0.4-0.8,0.5-1.1
		c0.5-0.1,0.8-0.1,1.3-0.1c0.4,0,0.7,0,1.1,0.1c0.7,0.1,0.6,1.1,0.5,1.4v0.1l0,0l0,0c-0.2,1.1,0,2,0.7,2.5s1.8,0.2,2.8-0.5l0,0
		c0,0,0.6-0.5,1,0.2c0.2,0.6,0.5,1.2,0.6,1.8c0.1,0.7-0.8,0.5-0.8,0.5l0,0c-1.1-0.2-2.2,0-2.5,0.7c-0.6,1,0,2.5,1.4,3.7l0,0
		c0,0,0.7,0.6,0.4,1.2c-0.5,0.5-1.1,1-1.7,1.3l0,0l0,0c0,0-0.1,0-0.1,0.1c-0.7,0.2-1-0.8-1-0.8l0,0C17,16.8,16.2,16,15.2,16
		s-1.8,1-2.2,2.3l0,0c-0.4,1-1,0.8-1.2,0.7c-0.7-0.4-1.4-0.8-1.9-1.4s0.2-1.1,0.2-1.1l0,0c1.4-1.1,2-2.8,1.4-3.7
		c-0.6-0.8-1.6-1.1-2.6-0.8l0,0C9,11.9,8,12,8.2,11.4z"/>
	<path class="st0" d="M15,15.1c1.3,0,2.5-1.1,2.5-2.5c0-1.3-1.1-2.5-2.5-2.5c-1.3,0-2.5,1.1-2.5,2.5C12.5,14,13.7,15.1,15,15.1z
		 M15,11.4c0.7,0,1.2,0.6,1.2,1.2c0,0.7-0.6,1.2-1.2,1.2c-0.7,0-1.2-0.6-1.2-1.2C13.8,12,14.3,11.4,15,11.4z"/>
	<path class="st0" d="M21.8,22c-2.8,0-5.2,1.2-6.8,3c-1.7-1.8-4.2-3-6.8-3c-3.5,0-6.5,1.9-8.2,4.7h30C28.4,23.9,25.3,22,21.8,22z"/>
</g>
</svg>
