<?xml version="1.0" encoding="utf-8"?>
<!-- Generator: Adobe Illustrator 21.1.0, SVG Export Plug-In . SVG Version: 6.00 Build 0)  -->
<svg version="1.1" id="Layer_1" xmlns="http://www.w3.org/2000/svg" xmlns:xlink="http://www.w3.org/1999/xlink" x="0px" y="0px"
	 viewBox="0 0 12 12" style="enable-background:new 0 0 12 12;" xml:space="preserve">
<style type="text/css">
	.st0{fill:#AEB8C1;}
</style>
<g>
	<path class="st0" d="M5.6,0.5C5.7,0.4,5.8,0.3,6,0.3s0.3,0.1,0.4,0.3l1.5,3C8,3.7,8.1,3.8,8.3,3.8l3.3,0.5c0.2,0,0.3,0.1,0.4,0.3
		C12,4.8,12,5,11.9,5.1L9.4,7.4C9.3,7.6,9.3,7.7,9.3,7.9l0.6,3.3c0,0.2,0,0.4-0.2,0.5c-0.1,0.1-0.3,0.1-0.5,0l-3-1.6
		c-0.1-0.1-0.3-0.1-0.4,0l-3,1.6c-0.2,0.1-0.3,0.1-0.5,0c-0.1-0.1-0.2-0.3-0.2-0.5l0.6-3.3c0-0.2,0-0.3-0.1-0.4L0.1,5.1
		C0,5,0,4.8,0,4.6c0.1-0.2,0.2-0.3,0.4-0.3l3.3-0.5c0.2,0,0.3-0.1,0.3-0.3L5.6,0.5z"/>
</g>
</svg>
