<?xml version="1.0" encoding="utf-8"?>
<!-- Generator: Adobe Illustrator 21.1.0, SVG Export Plug-In . SVG Version: 6.00 Build 0)  -->
<svg version="1.1" id="Layer_1" xmlns="http://www.w3.org/2000/svg" xmlns:xlink="http://www.w3.org/1999/xlink" x="0px" y="0px"
	 viewBox="0 0 12 12" style="enable-background:new 0 0 12 12;" xml:space="preserve">
<style type="text/css">
	.st0{fill:#AEB8C1;}
</style>
<g>
	<path class="st0" d="M9.4,5.3c-1.2,0-2.2,0.5-2.2,2v2.1c0,1.5,1,2,2.2,2c1.2,0,2.2-0.5,2.2-2V7.3C11.6,5.9,10.6,5.3,9.4,5.3z
		 M10.1,9.4c0,0.5-0.3,0.7-0.7,0.7S8.6,9.9,8.6,9.4V7.3c0-0.5,0.3-0.7,0.7-0.7c0.5,0,0.7,0.2,0.7,0.7V9.4z"/>
	<path class="st0" d="M9.4,0.8C9.4,0.3,8.9,0,8.5,0C8.3,0,8,0.1,7.9,0.4L2.8,10.9c0,0.1-0.1,0.2-0.1,0.3C2.7,11.6,3,12,3.5,12
		c0.3,0,0.6-0.1,0.7-0.4L9.3,1.1C9.4,1,9.4,0.9,9.4,0.8z"/>
	<path class="st0" d="M4.8,4.7V2.6c0-1.5-1-2-2.2-2c-1.2,0-2.2,0.5-2.2,2v2.1c0,1.5,1,2,2.2,2C3.9,6.6,4.8,6.1,4.8,4.7z M3.4,4.7
		c0,0.5-0.3,0.7-0.7,0.7c-0.5,0-0.7-0.2-0.7-0.7V2.6c0-0.5,0.3-0.7,0.7-0.7c0.5,0,0.7,0.2,0.7,0.7V4.7z"/>
</g>
</svg>
