<?xml version="1.0" encoding="utf-8"?>
<!-- Generator: Adobe Illustrator 21.1.0, SVG Export Plug-In . SVG Version: 6.00 Build 0)  -->
<svg version="1.1" id="Layer_1" xmlns="http://www.w3.org/2000/svg" xmlns:xlink="http://www.w3.org/1999/xlink" x="0px" y="0px"
	 viewBox="0 0 30 30" style="enable-background:new 0 0 30 30;" xml:space="preserve">
<style type="text/css">
	.st0{fill:#AEB8C1;}
</style>
<g>
	<path class="st0" d="M29.8,14.2c-0.5-0.6-2.5-0.5-3-0.2c0-0.4-0.1-0.7-0.2-1.2c-0.4-2-0.8-3.4-1.4-4c0,0,0,0-0.1,0
		c0,0-1.4-0.8-5.2-2c-3.8-1.1-5.4-1.2-5.4-1.2h-0.1c-0.8,0.2-1.9,1.1-3.5,2.6c-0.2,0.2-0.5,0.5-0.7,0.8C9.7,8.6,8.2,7.4,7.3,7.5
		C6.6,7.7,6.5,9.2,6.7,9.6c0.2,0.2,0.8,0.6,1.6,0.7c-0.2,0.1-0.4,0.4-0.6,0.7c1.1,0.6,3.7,1.3,3,2.3C9.6,14.7,7.9,14,7,13l-0.8,3.8
		l4,1.2L22,21.5l-0.1,0.4c-0.2,1,0.1,2,1,2.3l1,0.2c0.8,0.2,1.8-0.4,2-1.3l1.4-4.2c-1.3,0.4-3.1,0-3.2-1.7c-0.2-1.1,2.4-0.4,3.6-0.2
		c0-0.4,0-0.7-0.1-1c0.7,0.2,1.4,0.4,1.7,0.2C29.7,16,30.4,14.8,29.8,14.2z M19.4,18.6l-5.8-1.8l0.1-2.8l7,2L19.4,18.6z M10.9,9.8
		c1.2-1.3,2.5-2.6,3.4-2.8c0.2,0,1.8,0.1,5.2,1.1c3.2,1,4.7,1.7,4.9,1.9c0.5,0.6,1,2.4,1.2,4.1L10.9,9.8z"/>
	<path class="st0" d="M5.8,22.6h-1v-9.1c0-0.2-0.1-0.4-0.4-0.4H3.2c-0.2,0-0.4,0.1-0.4,0.4v0.8H2.5c-0.2,0-0.4,0.1-0.4,0.4v7.9H1.3
		C1.1,22.6,1,22.7,1,23V24c0,0.2,0.1,0.4,0.4,0.4h4.4c0.2,0,0.4-0.1,0.4-0.4V23C6.1,22.8,5.9,22.6,5.8,22.6z"/>
	<path class="st0" d="M1.2,19.8L1.2,19.8v-0.2v-4.3H0.4c-0.2,0-0.4,0.1-0.4,0.4v4.6h0.8C1.1,20.2,1.2,20.1,1.2,19.8z"/>
</g>
</svg>
