<?xml version="1.0" encoding="utf-8"?>
<!-- Generator: Adobe Illustrator 21.1.0, SVG Export Plug-In . SVG Version: 6.00 Build 0)  -->
<svg version="1.1" id="Layer_1" xmlns="http://www.w3.org/2000/svg" xmlns:xlink="http://www.w3.org/1999/xlink" x="0px" y="0px"
	 viewBox="0 0 12 12" style="enable-background:new 0 0 12 12;" xml:space="preserve">
<style type="text/css">
	.st0{fill:#AEB8C1;}
</style>
<g>
	<g>
		<path class="st0" d="M6,0C2.7,0,0,2.7,0,6s2.7,6,6,6s6-2.7,6-6S9.3,0,6,0z M8.5,3.5c0.5,0,0.8,0.4,0.8,0.8S8.9,5.2,8.5,5.2
			C8,5.2,7.6,4.8,7.6,4.4C7.6,3.9,8,3.5,8.5,3.5z M3.5,3.5c0.5,0,0.8,0.4,0.8,0.8S4,5.2,3.5,5.2S2.7,4.8,2.7,4.4
			C2.7,3.9,3.1,3.5,3.5,3.5z M6,10.4c-1.9,0-3.4-1.2-3.9-2.9h7.9C9.4,9.2,7.9,10.4,6,10.4z"/>
	</g>
</g>
</svg>
