<?xml version="1.0" encoding="utf-8"?>
<!-- Generator: Adobe Illustrator 21.1.0, SVG Export Plug-In . SVG Version: 6.00 Build 0)  -->
<svg version="1.1" id="Layer_1" xmlns="http://www.w3.org/2000/svg" xmlns:xlink="http://www.w3.org/1999/xlink" x="0px" y="0px"
	 viewBox="0 0 12 12" style="enable-background:new 0 0 12 12;" xml:space="preserve">
<style type="text/css">
	.st0{fill:#AEB8C1;}
</style>
<g>
	<g>
		<circle class="st0" cx="6" cy="1" r="1"/>
		<path class="st0" d="M6.3,2.5c-0.3-0.1-0.5,0-0.8,0C3.9,2.7,3.3,4.7,3.5,6.1c0.1,0.6,1.1,0.6,1,0c-0.1-0.5,0-1.4,0.3-1.9
			c0,0.7,0,1.4,0,2.1c0,0,0,0,0,0.1c0,0,0,0,0,0c0,1.7,0,3.4-0.1,5c0,0.7,1.1,0.7,1.2,0c0.1-1.3,0.1-2.6,0.1-3.9c0.1,0,0.1,0,0.2,0
			c0,1.3,0,2.6,0.1,3.9c0,0.7,1.2,0.7,1.2,0c-0.1-1.7-0.1-3.4-0.1-5c0-0.1,0-0.1,0-0.1c0-0.7,0-1.5,0-2.2c0.3,0.6,0.4,1.5,0.3,2
			c-0.1,0.6,0.9,0.6,1,0C8.7,4.6,8.1,2.6,6.3,2.5z"/>
	</g>
</g>
</svg>
