<?xml version="1.0" encoding="utf-8"?>
<!-- Generator: Adobe Illustrator 21.1.0, SVG Export Plug-In . SVG Version: 6.00 Build 0)  -->
<svg version="1.1" id="Layer_1" xmlns="http://www.w3.org/2000/svg" xmlns:xlink="http://www.w3.org/1999/xlink" x="0px" y="0px"
	 viewBox="0 0 12 12" style="enable-background:new 0 0 12 12;" xml:space="preserve">
<style type="text/css">
	.st0{fill:#AEB8C1;}
</style>
<g>
	<path class="st0" d="M10.8,4C9.8,1.6,8.1-0.3,7.2,0C5.7,0.6,8.1,3.5,0.9,6.4C0.3,6.6,0.1,7.7,0.4,8.3c0.3,0.6,1.1,1.2,1.7,0.9
		C2.2,9.2,2.6,9,2.6,9c0.4,0.6,0.9,0.2,1.1,0.6c0.2,0.5,0.6,1.4,0.8,1.8c0.1,0.3,0.5,0.6,0.7,0.6c0.2-0.1,1.1-0.4,1.4-0.5
		c0.3-0.1,0.4-0.4,0.3-0.6c-0.1-0.2-0.5-0.3-0.6-0.6C6.1,10,5.7,9.1,5.6,8.8C5.4,8.4,5.7,8.1,6.2,8.1c3.3-0.3,3.9,1.7,5,1.2
		C12,9,11.9,6.5,10.8,4z M10.4,8C10.3,8.1,9,7.1,8.2,5.2C7.3,3.3,7.4,1.5,7.6,1.4c0.2-0.1,1.4,1.1,2.3,3.1C10.7,6.4,10.6,7.9,10.4,8
		z"/>
</g>
</svg>
