<?xml version="1.0" encoding="utf-8"?>
<!-- Generator: Adobe Illustrator 21.1.0, SVG Export Plug-In . SVG Version: 6.00 Build 0)  -->
<svg version="1.1" id="Layer_1" xmlns="http://www.w3.org/2000/svg" xmlns:xlink="http://www.w3.org/1999/xlink" x="0px" y="0px"
	 viewBox="0 0 12 12" style="enable-background:new 0 0 12 12;" xml:space="preserve">
<style type="text/css">
	.st0{fill:#AEB8C1;}
</style>
<g>
	<g>
		<path class="st0" d="M4.6,7.7L4.5,8.8c0,0.1,0,0.3,0.2,0.4c0.1,0.1,0.3,0.1,0.4,0l1-0.5l1,0.5c0.1,0,0.1,0,0.2,0
			c0.1,0,0.2,0,0.2-0.1c0.1-0.1,0.2-0.2,0.2-0.4L7.4,7.7l0.8-0.8c0.1-0.1,0.1-0.3,0.1-0.4c0-0.1-0.2-0.2-0.3-0.3L6.8,6.1l-0.5-1
			C6.3,5,6.1,4.9,6,4.9C5.9,4.9,5.7,5,5.6,5.1l-0.5,1L4.1,6.3c-0.1,0-0.3,0.1-0.3,0.3c0,0.1,0,0.3,0.1,0.4L4.6,7.7z"/>
		<path class="st0" d="M10.6,1.4H9.4V0.7c0-0.3-0.3-0.6-0.6-0.6H8.7c-0.3,0-0.6,0.3-0.6,0.6v0.7H3.8V0.7c0-0.3-0.3-0.6-0.6-0.6H3.2
			c-0.3,0-0.6,0.3-0.6,0.6v0.7H1.4c-0.6,0-1.2,0.5-1.2,1.2v8.2c0,0.6,0.5,1.2,1.2,1.2h9.3c0.6,0,1.2-0.5,1.2-1.2V2.5
			C11.8,1.9,11.3,1.4,10.6,1.4z M10.5,10.6h-9V4.2h9V10.6z"/>
	</g>
</g>
</svg>
