<?xml version="1.0" encoding="utf-8"?>
<!-- Generator: Adobe Illustrator 21.1.0, SVG Export Plug-In . SVG Version: 6.00 Build 0)  -->
<svg version="1.1" id="Layer_1" xmlns="http://www.w3.org/2000/svg" xmlns:xlink="http://www.w3.org/1999/xlink" x="0px" y="0px"
	 viewBox="0 0 12 12" style="enable-background:new 0 0 12 12;" xml:space="preserve">
<style type="text/css">
	.st0{fill:#B6B6B6;}
</style>
<g>
	<path class="st0" d="M10.8,5.8c-0.1-0.1-0.1-0.1-0.2-0.1H9.3c-0.1,0-0.1,0-0.2,0.1C9,5.9,9,5.9,9,6c0,1.1-0.4,2-1.1,2.8
		C7.2,9.6,6.3,10,5.2,10.1V5.9l3.3-1c0.1,0,0.2-0.1,0.2-0.3V3.5c0-0.1,0-0.2-0.1-0.2c-0.1-0.1-0.2-0.1-0.2,0l-3.2,1V3.5l3.3-1
		c0.1,0,0.2-0.1,0.2-0.3V1.1c0-0.1,0-0.2-0.1-0.2c-0.1-0.1-0.2-0.1-0.2,0l-3.2,1V0.3c0-0.1,0-0.1-0.1-0.2C5.1,0,5,0,4.9,0H3.5
		C3.5,0,3.4,0,3.3,0.1C3.3,0.1,3.3,0.2,3.3,0.3v2.1L1.3,3c-0.1,0-0.2,0.1-0.2,0.3v1.1c0,0.1,0,0.2,0.1,0.2c0.1,0,0.1,0.1,0.2,0.1
		c0,0,0.1,0,0.1,0l1.8-0.6v0.8l-2,0.6c-0.1,0-0.2,0.1-0.2,0.3v1.1c0,0.1,0,0.2,0.1,0.2c0.1,0,0.1,0.1,0.2,0.1c0,0,0.1,0,0.1,0
		l1.8-0.6v5.2c0,0.1,0,0.1,0.1,0.2C3.4,12,3.5,12,3.5,12h1.4c1.1,0,2.1-0.3,3-0.8c0.9-0.5,1.6-1.3,2.2-2.2c0.5-0.9,0.8-1.9,0.8-3
		C10.9,5.9,10.9,5.9,10.8,5.8z"/>
</g>
</svg>
