<?xml version="1.0" encoding="utf-8"?>
<!-- Generator: Adobe Illustrator 21.1.0, SVG Export Plug-In . SVG Version: 6.00 Build 0)  -->
<svg version="1.1" id="Layer_1" xmlns="http://www.w3.org/2000/svg" xmlns:xlink="http://www.w3.org/1999/xlink" x="0px" y="0px"
	 viewBox="0 0 12 12" style="enable-background:new 0 0 12 12;" xml:space="preserve">
<style type="text/css">
	.st0{fill:#AEB8C1;}
</style>
<g>
	<path class="st0" d="M11.9,3.8C10.3,2.3,8.3,1.4,6,1.4S1.6,2.3,0.1,3.8C0,3.9,0,4,0,4.2s0,0.2,0.1,0.3l0.6,0.6
		c0.2,0.2,0.5,0.2,0.6,0C2.6,4,4.2,3.2,6,3.2S9.4,4,10.6,5.1c0.2,0.2,0.5,0.2,0.6,0l0.6-0.6C12,4.4,12,4.3,12,4.2S12,3.9,11.9,3.8z"
		/>
	<path class="st0" d="M6,5.1c-1.3,0-2.4,0.5-3.2,1.3c-0.2,0.2-0.2,0.5,0,0.6l0.6,0.6c0.2,0.2,0.5,0.2,0.6,0C4.6,7.2,5.3,6.9,6,6.9
		s1.4,0.3,1.9,0.8c0.2,0.2,0.5,0.2,0.6,0l0.6-0.6c0.2-0.2,0.2-0.5,0-0.6C8.4,5.6,7.3,5.1,6,5.1z"/>
	<circle class="st0" cx="6" cy="9.7" r="0.9"/>
</g>
</svg>
