<?xml version="1.0" encoding="utf-8"?>
<!-- Generator: Adobe Illustrator 21.1.0, SVG Export Plug-In . SVG Version: 6.00 Build 0)  -->
<svg version="1.1" id="Layer_1" xmlns="http://www.w3.org/2000/svg" xmlns:xlink="http://www.w3.org/1999/xlink" x="0px" y="0px"
	 viewBox="0 0 12 12" style="enable-background:new 0 0 12 12;" xml:space="preserve">
<style type="text/css">
	.st0{fill:#AEB8C1;}
</style>
<g>
	<path class="st0" d="M5.9,0C2.6,0,0,2.8,0,6.1c0,3.3,2.8,6,6.1,5.9c3.3,0,6-2.8,5.9-6.1C12,2.6,9.2,0,5.9,0z M5.9,9.7L5.9,9.7
		C5.4,9.6,5,9.3,5,8.8c0-0.5,0.4-0.9,0.9-0.9l0,0c0.5,0,0.9,0.4,0.9,0.9C6.8,9.3,6.4,9.7,5.9,9.7z M8,5.4C7.9,5.6,7.7,5.8,7.3,6
		L7,6.3C6.8,6.4,6.6,6.6,6.6,6.7c0,0.1-0.1,0.1-0.1,0.4l0,0.1H5.1l0-0.1c0-0.5,0-0.8,0.2-1c0.3-0.4,1-0.8,1-0.8
		C6.5,5.1,6.6,5,6.7,4.9c0.1-0.2,0.2-0.4,0.2-0.5c0-0.2-0.1-0.4-0.2-0.6C6.6,3.7,6.3,3.6,6,3.6c-0.3,0-0.6,0.1-0.7,0.3
		C5.2,4.1,5.1,4.4,5.1,4.6v0.1H3.6l0-0.1c0-0.9,0.4-1.5,0.9-1.9c0.4-0.2,0.8-0.4,1.4-0.4c0.7,0,1.3,0.2,1.7,0.5
		c0.5,0.3,0.7,0.8,0.7,1.5C8.4,4.7,8.3,5.1,8,5.4z"/>
</g>
</svg>
