<?xml version="1.0" encoding="utf-8"?>
<!-- Generator: Adobe Illustrator 21.1.0, SVG Export Plug-In . SVG Version: 6.00 Build 0)  -->
<svg version="1.1" id="Layer_1" xmlns="http://www.w3.org/2000/svg" xmlns:xlink="http://www.w3.org/1999/xlink" x="0px" y="0px"
	 viewBox="0 0 30 30" style="enable-background:new 0 0 30 30;" xml:space="preserve">
<style type="text/css">
	.st0{fill:#AEB8C1;}
</style>
<g>
	<circle class="st0" cx="25.9" cy="4.3" r="2.3"/>
	<circle class="st0" cx="15.2" cy="6.7" r="1.9"/>
	<circle class="st0" cx="9.8" cy="5.1" r="3.1"/>
	<path class="st0" d="M29.9,14.9c-0.1-2.5-3.8-5-8.6-6s-5.6,1.1-6.8,2.2s-3.2,0.8-3.2,0.8c-0.5,0-0.8,0-1.2,0C9.7,9.4,7.6,7.5,5,7.5
		c-2.8,0-5,2.2-5,4.9c0,1.7,0.8,3.1,2,4.1c0,0.8,0,2.6,0,5c0.1,3.5,6.1,5.9,9.7,6.5s6.8-2.5,8.3-3.7c1.4-1.1,4.9-1,7.7-1.7
		C30.5,22,30,17.4,29.9,14.9z M27.4,15c-0.7,0.1-6.7,0.6-8.2,1.8c-1.3,1.2-4.1,3.8-6.8,3.5c-2.8-0.2-7.2-2-8.4-4.1
		c-1.2-1.9,1.9-2.3,2.5-2.4c0.5-0.1,4.3-0.2,5.2-0.2c0.7,0,3.1-0.4,3.7-1c0.6-0.7,1.3-1.6,1.3-1.6s1.6-1.3,4.8-0.5
		c3.2,0.7,5.5,2.5,6.2,3.2C28.5,14.5,28.1,15,27.4,15z"/>
	<ellipse class="st0" cx="8.3" cy="15.4" rx="1.2" ry="0.6"/>
	<ellipse class="st0" cx="10.6" cy="17.7" rx="1.3" ry="0.7"/>
	<ellipse class="st0" cx="13.9" cy="18" rx="1.1" ry="0.6"/>
	<ellipse class="st0" cx="12" cy="19.1" rx="0.6" ry="0.2"/>
	<ellipse class="st0" cx="15.1" cy="14.9" rx="0.8" ry="0.4"/>
	<ellipse class="st0" cx="16.8" cy="16.9" rx="0.7" ry="0.4"/>
	<ellipse class="st0" cx="19" cy="14.8" rx="1.1" ry="0.5"/>
	<ellipse class="st0" cx="21.6" cy="12.6" rx="0.8" ry="0.4"/>
	<ellipse class="st0" cx="23.4" cy="14.2" rx="1" ry="0.5"/>
</g>
</svg>
