<?xml version="1.0" encoding="utf-8"?>
<!-- Generator: Adobe Illustrator 21.1.0, SVG Export Plug-In . SVG Version: 6.00 Build 0)  -->
<svg version="1.1" id="Layer_1" xmlns="http://www.w3.org/2000/svg" xmlns:xlink="http://www.w3.org/1999/xlink" x="0px" y="0px"
	 viewBox="0 0 16 16" style="enable-background:new 0 0 16 16;" xml:space="preserve">
<style type="text/css">
	.st0{fill:#FFFFFF;}
</style>
<g>
	<g>
		<g>
			<path class="st0" d="M6.1,14.1L6.1,14.1C6.1,15.1,7,16,8,16s1.9-0.9,1.9-1.9l0,0H6.1z"/>
			<path class="st0" d="M14.1,11.7l-1.7-2.6c0-0.7,0-2.7,0-3.1c0-2.1-1.5-3.8-3.5-4.3v-1C8.9,0.4,8.4,0,8,0C7.6,0,7.2,0.4,7.2,0.9v1
				c-2,0.4-3.5,2.1-3.5,4.3c0,0.9,0,2.7,0,3.1l-1.7,2.6c-0.2,0.2-0.2,0.6,0,0.9C2,12.9,2.4,13,2.7,13h10.7c0.3,0,0.6-0.2,0.7-0.4
				C14.3,12.4,14.2,11.9,14.1,11.7z"/>
		</g>
	</g>
</g>
</svg>
