<?xml version="1.0" encoding="utf-8"?>
<!-- Generator: Adobe Illustrator 21.1.0, SVG Export Plug-In . SVG Version: 6.00 Build 0)  -->
<svg version="1.1" id="Layer_1" xmlns="http://www.w3.org/2000/svg" xmlns:xlink="http://www.w3.org/1999/xlink" x="0px" y="0px"
	 viewBox="0 0 25 25" style="enable-background:new 0 0 25 25;" xml:space="preserve">
<g>
	<path d="M12.3,0C5.4,0,0,5.8,0,12.7S5.8,25.2,12.7,25c6.9,0,12.5-5.8,12.3-12.7C25,5.4,19.2,0,12.3,0z M12.3,20.2L12.3,20.2
		c-1-0.2-1.9-0.8-1.9-1.9s0.8-1.9,1.9-1.9l0,0c1,0,1.9,0.8,1.9,1.9S13.3,20.2,12.3,20.2z M16.7,11.2c-0.2,0.4-0.6,0.8-1.5,1.2
		l-0.6,0.6c-0.4,0.2-0.8,0.6-0.8,0.8s-0.2,0.2-0.2,0.8V15h-2.9v-0.2c0-1,0-1.7,0.4-2.1c0.6-0.8,2.1-1.7,2.1-1.7
		c0.4-0.4,0.6-0.6,0.8-0.8c0.2-0.4,0.4-0.8,0.4-1c0-0.4-0.2-0.8-0.4-1.2c-0.2-0.2-0.8-0.4-1.5-0.4c-0.6,0-1.2,0.2-1.5,0.6
		c-0.2,0.4-0.4,1-0.4,1.5v0.2H7.5V9.6c0-1.9,0.8-3.1,1.9-4c0.8-0.4,1.7-0.8,2.9-0.8c1.5,0,2.7,0.4,3.5,1c1,0.6,1.5,1.7,1.5,3.1
		C17.5,9.8,17.3,10.6,16.7,11.2z"/>
</g>
</svg>
